# xmcd CD database file
#
# Track frame offsets:
#	150
#	25228
#	48536
#	73050
#	108791
#
# Disc length: 1795 seconds
#
# Revision: 1
# Processed by: cddbd v1.5.2PL0 Copyright (c) Steve Scherf et al.
# Submitted via: CDex 1.51
#
DISCID=3d070105
DTITLE=Michael Brecker - Cool Jazz Collection 
DYEAR=1900
DGENRE=Jazz
TTITLE0=Nothing Personal
TTITLE1=Talking to Myself
TTITLE2=Escher Sketch
TTITLE3=Corfu
TTITLE4=Song for Bilbao
EXTD=
EXTT0=
EXTT1=
EXTT2=
EXTT3=
EXTT4=
PLAYORDER=
